<svg width="126" height="30" viewBox="0 0 126 30" fill="none" xmlns="http://www.w3.org/2000/svg">
<g clip-path="url(#clip0_2129_2126)">
<path d="M25.5544 0H3.93145C1.76017 0 0 1.74435 0 3.8961V26.1039C0 28.2557 1.76017 30 3.93145 30H25.5544C27.7257 30 29.4859 28.2557 29.4859 26.1039V3.8961C29.4859 1.74435 27.7257 0 25.5544 0Z" fill="#FBFCFF"/>
<path d="M22.0826 14.0667C22.2493 14.8137 22.3204 15.5945 22.253 16.3823C22.1814 17.17 21.965 17.9553 21.6294 18.6707C21.288 19.3807 20.8311 20.0112 20.3029 20.534C19.7757 21.0589 19.1897 21.4944 18.5654 21.832C17.9416 22.1709 17.2867 22.4288 16.6104 22.5955C15.9318 22.7609 15.2639 22.8377 14.6001 22.8479C13.2746 22.8622 12.0144 22.6101 10.8465 22.212C10.7635 22.1823 10.6951 22.1393 10.6336 22.091C10.2833 22.0409 9.99701 21.9392 9.94822 21.7888C9.31635 18.0316 8.48128 14.3138 7.84743 10.3988C7.15474 9.25596 6.70647 8.19351 7.1945 7.96313C7.96586 7.60244 8.73256 7.36488 9.48846 7.19557C10.2434 7.03598 10.9882 6.95801 11.7258 6.92958C13.1989 6.89971 14.6479 7.08649 16.0808 7.56938C16.7968 7.8198 17.5073 8.13171 18.1956 8.5706C18.8699 9.00709 19.4657 9.52058 19.9839 10.0851C20.503 10.6498 20.931 11.2787 21.288 11.9423C21.6454 12.6054 21.9171 13.3178 22.0826 14.0667ZM18.0993 17.2422C18.177 16.9143 18.2038 16.5918 18.1732 16.2576C18.1376 15.9233 18.0406 15.5835 17.9009 15.2529C17.7634 14.9216 17.5705 14.599 17.3349 14.308C17.1014 14.0178 16.8408 13.7457 16.5482 13.5281C16.2568 13.3099 15.9504 13.135 15.6457 13.0095C15.3496 12.8921 14.9945 12.8071 14.6253 12.7457C14.3756 12.7037 14.1106 12.6862 13.8429 12.6796C13.3706 15.1527 12.9496 17.6915 12.4655 20.228C13.1233 20.2722 13.7689 20.2476 14.3788 20.1412C15.3173 19.9766 16.1364 19.6246 16.8021 19.0948C17.4666 18.5719 17.9333 17.8976 18.0993 17.2422Z" fill="#212121"/>
<path d="M43.3558 8.65815C46.0658 8.65815 48.2707 10.8432 48.2702 13.5284V16.8266C48.2702 19.5122 46.0654 21.6973 43.3554 21.6973C43.0816 21.6973 42.8191 21.5895 42.6256 21.3978L38.7428 17.5498C38.3397 17.1505 38.3397 16.503 38.7428 16.1036C39.1458 15.7042 39.7991 15.7042 40.2021 16.1036L43.7549 19.6244C45.1384 19.4313 46.2062 18.2503 46.2062 16.8269V13.5287C46.2062 11.9708 44.9273 10.7034 43.3553 10.7034H40.5045V12.5554L44.0851 16.1038C44.4882 16.5031 44.4882 17.1507 44.0851 17.55C43.6821 17.9494 43.0287 17.9494 42.6257 17.55L38.7429 13.7021C38.5494 13.5103 38.4406 13.2502 38.4406 12.9789V9.68069C38.4406 9.11589 38.9027 8.65802 39.4726 8.65802L43.3558 8.65815ZM54.0178 12.1099C56.6853 12.1099 58.8552 14.2603 58.8552 16.9037C58.8552 17.4685 58.3931 17.9264 57.8232 17.9264H51.4436C51.8538 18.9369 52.8531 19.6522 54.018 19.6522C54.7588 19.6522 55.4553 19.3664 55.9791 18.8472C56.3822 18.4478 57.0355 18.448 57.4386 18.8472C57.8417 19.2467 57.8415 19.8942 57.4386 20.2936C56.5247 21.199 55.31 21.6976 54.0179 21.6976C51.3505 21.6976 49.1806 19.5472 49.1806 16.9037C49.1806 14.2603 51.3504 12.1099 54.0178 12.1099ZM51.4434 15.8811H56.5923C56.1821 14.8705 55.1828 14.1552 54.0179 14.1552C52.853 14.1552 51.8536 14.8705 51.4434 15.8811ZM65.239 8.65815C67.6433 8.65815 69.5991 10.5966 69.5991 12.979C69.5991 15.3615 67.6433 17.2999 65.239 17.2999H61.8336V20.6748C61.8336 21.2396 61.3715 21.6975 60.8017 21.6975C60.2318 21.6975 59.7697 21.2396 59.7697 20.6748V16.2772C59.7697 15.7124 60.2318 15.2546 60.8017 15.2546H65.239C66.5051 15.2546 67.5352 14.2338 67.5352 12.979C67.5352 11.7242 66.5051 10.7034 65.239 10.7034H63.293L65.414 12.8054C65.817 13.2047 65.817 13.8523 65.414 14.2516C65.0109 14.6511 64.3576 14.6511 63.9545 14.2516L60.0717 10.4037C59.7765 10.1112 59.6883 9.67136 59.8481 9.28921C60.0079 8.90706 60.3842 8.65796 60.8015 8.65796L65.239 8.65815ZM71.5411 12.1099C72.111 12.1099 72.5731 12.5678 72.5731 13.1325V20.6749C72.5731 21.2397 72.111 21.6976 71.5411 21.6976C70.9712 21.6976 70.5092 21.2397 70.5092 20.6749V13.1325C70.5092 12.5677 70.9712 12.1099 71.5411 12.1099ZM70.5878 10.072C70.562 10.0106 70.5427 9.94542 70.5298 9.88022C70.5156 9.81502 70.5092 9.74726 70.5092 9.68079C70.5092 9.61432 70.5156 9.54656 70.5298 9.48136C70.5427 9.41616 70.562 9.35097 70.5878 9.28961C70.6136 9.22825 70.6459 9.16816 70.6833 9.11319C70.7207 9.05694 70.7633 9.00453 70.811 8.95724C70.8587 8.90994 70.9116 8.86775 70.9683 8.83068C71.0238 8.79361 71.0845 8.76165 71.1464 8.73609C71.2083 8.71053 71.2741 8.69136 71.3399 8.67857C71.6753 8.6108 72.0313 8.72075 72.2712 8.95726C72.3177 9.00455 72.3615 9.05696 72.3989 9.11321C72.4364 9.16818 72.4686 9.22827 72.4944 9.28963C72.5202 9.35099 72.5395 9.41618 72.5524 9.48138C72.5666 9.54658 72.5731 9.61434 72.5731 9.68081C72.5731 9.74728 72.5666 9.81504 72.5524 9.88024C72.5395 9.94544 72.5202 10.0106 72.4944 10.072C72.4686 10.1334 72.4364 10.1934 72.3989 10.2484C72.3615 10.3047 72.3177 10.3571 72.2712 10.4044C72.2235 10.4517 72.1706 10.4938 72.1139 10.5309C72.0584 10.568 71.9978 10.6 71.9359 10.6255C71.8739 10.6511 71.8082 10.6702 71.7424 10.683C71.6766 10.6971 71.6082 10.7035 71.5411 10.7035C71.4741 10.7035 71.4057 10.6971 71.3399 10.683C71.2741 10.6702 71.2083 10.6511 71.1464 10.6255C71.0845 10.6 71.0238 10.568 70.9684 10.5309C70.9116 10.4938 70.8587 10.4517 70.811 10.4044C70.7633 10.3571 70.7207 10.3047 70.6833 10.2484C70.6459 10.1934 70.6136 10.1334 70.5878 10.072ZM80.3032 18.8472C80.7062 18.4478 81.3597 18.4477 81.7627 18.8472C82.1658 19.2466 82.1658 19.8941 81.7627 20.2935C80.849 21.1989 79.6343 21.6975 78.3421 21.6975C75.6746 21.6975 73.5047 19.5471 73.5047 16.9036C73.5047 14.2602 75.6746 12.1098 78.3421 12.1098C79.6342 12.1098 80.849 12.6084 81.7625 13.5139C82.1656 13.9133 82.1656 14.5608 81.7625 14.9602C81.3595 15.3596 80.7061 15.3596 80.3031 14.9602C79.7794 14.4411 79.0828 14.1552 78.3421 14.1552C76.8128 14.1552 75.5686 15.3882 75.5686 16.9037C75.5686 18.4193 76.8128 19.6523 78.3421 19.6523C79.0829 19.6523 79.7794 19.3663 80.3032 18.8472ZM87.8995 19.6523C88.4694 19.6523 88.9315 20.1102 88.9315 20.675C88.9315 21.2397 88.4694 21.6976 87.8995 21.6976C85.1896 21.6976 82.9846 19.5126 82.9846 16.8269V9.68086C82.9846 9.11606 83.4467 8.65819 84.0166 8.65819C84.5864 8.65819 85.0485 9.1161 85.0485 9.68086V12.1126H87.8993C88.4692 12.1126 88.9313 12.5705 88.9313 13.1352C88.9313 13.7 88.4692 14.1579 87.8993 14.1579H85.0485V16.8269C85.0485 18.3847 86.3274 19.6523 87.8995 19.6523ZM93.7495 12.1099C96.4169 12.1099 98.5868 14.2603 98.5868 16.9037C98.5868 19.5472 96.4169 21.6976 93.7495 21.6976C91.082 21.6976 88.9121 19.5472 88.9121 16.9037C88.9121 14.2603 91.082 12.1099 93.7495 12.1099ZM93.7495 19.6523C95.2787 19.6523 96.523 18.4193 96.523 16.9037C96.523 15.3882 95.2788 14.1552 93.7495 14.1552C92.2202 14.1552 90.976 15.3882 90.976 16.9037C90.976 18.4193 92.2202 19.6523 93.7495 19.6523ZM104.339 12.1099C104.909 12.1099 105.371 12.5678 105.371 13.1325C105.371 13.6973 104.909 14.1552 104.339 14.1552C102.809 14.1552 101.565 15.3882 101.565 16.9037V20.6749C101.565 21.2397 101.103 21.6976 100.533 21.6976C99.9634 21.6976 99.5013 21.2397 99.5013 20.6749V13.1325C99.5013 12.5677 99.9634 12.1099 100.533 12.1099C101.053 12.1099 101.483 12.4917 101.554 12.9877C102.342 12.4356 103.302 12.1099 104.339 12.1099ZM107.307 12.1099C107.877 12.1099 108.339 12.5678 108.339 13.1325V20.6749C108.339 21.2397 107.877 21.6976 107.307 21.6976C106.737 21.6976 106.275 21.2397 106.275 20.6749V13.1325C106.275 12.5677 106.737 12.1099 107.307 12.1099ZM106.353 10.072C106.328 10.0106 106.308 9.94542 106.295 9.88022C106.281 9.81502 106.275 9.74726 106.275 9.68079C106.275 9.61432 106.281 9.54656 106.295 9.48136C106.308 9.41616 106.328 9.35097 106.353 9.28961C106.379 9.22825 106.411 9.16816 106.449 9.11319C106.486 9.05694 106.529 9.00453 106.577 8.95724C106.624 8.90994 106.677 8.86775 106.734 8.83068C106.789 8.79361 106.85 8.76165 106.912 8.73609C106.974 8.71053 107.04 8.69136 107.105 8.67857C107.441 8.6108 107.797 8.72075 108.037 8.95726C108.083 9.00455 108.127 9.05696 108.165 9.11321C108.202 9.16818 108.234 9.22827 108.26 9.28963C108.286 9.35099 108.305 9.41618 108.318 9.48138C108.332 9.54658 108.339 9.61434 108.339 9.68081C108.339 9.74728 108.332 9.81504 108.318 9.88024C108.305 9.94544 108.286 10.0106 108.26 10.072C108.234 10.1334 108.202 10.1934 108.165 10.2484C108.127 10.3047 108.083 10.3571 108.037 10.4044C107.989 10.4517 107.936 10.4938 107.879 10.5309C107.824 10.568 107.763 10.6 107.701 10.6255C107.639 10.6511 107.574 10.6702 107.508 10.683C107.442 10.6971 107.374 10.7035 107.307 10.7035C107.24 10.7035 107.171 10.6971 107.105 10.683C107.04 10.6702 106.974 10.6511 106.912 10.6255C106.85 10.6 106.789 10.568 106.734 10.5309C106.677 10.4938 106.624 10.4517 106.577 10.4044C106.529 10.3571 106.486 10.3047 106.449 10.2484C106.411 10.1934 106.379 10.1334 106.353 10.072ZM117.913 12.1099C118.483 12.1099 118.945 12.5678 118.945 13.1325V20.6749C118.945 21.2397 118.483 21.6976 117.913 21.6976C117.392 21.6976 116.963 21.3159 116.892 20.8197C116.104 21.3719 115.144 21.6976 114.107 21.6976C111.44 21.6976 109.27 19.5472 109.27 16.9037C109.27 14.2603 111.44 12.1099 114.107 12.1099C115.144 12.1099 116.104 12.4356 116.892 12.9877C116.963 12.4916 117.392 12.1099 117.913 12.1099ZM114.107 19.6523C115.637 19.6523 116.881 18.4193 116.881 16.9037C116.881 15.3882 115.637 14.1552 114.107 14.1552C112.578 14.1552 111.334 15.3882 111.334 16.9037C111.334 18.4193 112.578 19.6523 114.107 19.6523ZM124.774 19.6523C125.344 19.6523 125.806 20.1102 125.806 20.675C125.806 21.2397 125.344 21.6976 124.774 21.6976C122.064 21.6976 119.859 19.5126 119.859 16.8269V9.68086C119.859 9.11606 120.321 8.65819 120.891 8.65819C121.461 8.65819 121.923 9.1161 121.923 9.68086V16.8269C121.923 18.3848 123.202 19.6523 124.774 19.6523Z" fill="#FBFCFF"/>
</g>
<defs>
<clipPath id="clip0_2129_2126">
<rect width="125.806" height="30" fill="white"/>
</clipPath>
</defs>
</svg>
